HIERARCHY
ROOT Hips
{
    OFFSET 0.000000 0.000000 0.000000
    CHANNELS 6 Xposition Yposition Zposition Zrotation Xrotation Yrotation
    JOINT Spine
    {
        OFFSET -0.000000 14.517291 0.000000
        CHANNELS 3 Zrotation Xrotation Yrotation
        JOINT Spine1
        {
            OFFSET -0.000000 37.558300 0.000000
            CHANNELS 3 Zrotation Xrotation Yrotation
            JOINT Neck
            {
                OFFSET -0.000000 37.404057 3.400369
                CHANNELS 3 Zrotation Xrotation Yrotation
                JOINT Head
                {
                    OFFSET -0.000000 24.785618 -3.540803
                    CHANNELS 3 Zrotation Xrotation Yrotation
                    End Site
                    {
                        OFFSET -0.000000 35.408028 0.000000
                    }
                }
            }
            JOINT LeftShoulder
            {
                OFFSET 6.992933 33.973492 -0.192664
                CHANNELS 3 Zrotation Xrotation Yrotation
                JOINT LeftArm
                {
                    OFFSET 21.527611 0.000000 0.000000
                    CHANNELS 3 Zrotation Xrotation Yrotation
                    JOINT LeftForeArm
                    {
                        OFFSET 56.353916 0.000000 0.000000
                        CHANNELS 3 Zrotation Xrotation Yrotation
                        JOINT LeftHand
                        {
                            OFFSET 47.774071 0.000000 0.000000
                            CHANNELS 3 Zrotation Xrotation Yrotation
                            End Site
                            {
                                OFFSET 26.556021 0.000000 0.000000
                            }
                        }
                    }
                }
            }
            JOINT RightShoulder
            {
                OFFSET -7.065357 33.973492 -0.192664
                CHANNELS 3 Zrotation Xrotation Yrotation
                JOINT RightArm
                {
                    OFFSET -21.527611 0.000000 0.000000
                    CHANNELS 3 Zrotation Xrotation Yrotation
                    JOINT RightForeArm
                    {
                        OFFSET -56.353916 0.000000 0.000000
                        CHANNELS 3 Zrotation Xrotation Yrotation
                        JOINT RightHand
                        {
                            OFFSET -47.774071 0.000000 0.000000
                            CHANNELS 3 Zrotation Xrotation Yrotation
                            End Site
                            {
                                OFFSET -26.556021 0.000000 0.000000
                            }
                        }
                    }
                }
            }
        }
    }
    JOINT LeftUpLeg
    {
        OFFSET 17.704014 0.000000 0.000000
        CHANNELS 3 Zrotation Xrotation Yrotation
        JOINT LeftLeg
        {
            OFFSET -0.000000 -81.181816 0.000000
            CHANNELS 3 Zrotation Xrotation Yrotation
            JOINT LeftFoot
            {
                OFFSET -0.000000 -62.821102 0.000000
                CHANNELS 3 Zrotation Xrotation Yrotation
                JOINT LeftToeBase
                {
                    OFFSET -0.000000 -11.507608 26.556021
                    CHANNELS 3 Zrotation Xrotation Yrotation
                    End Site
                    {
                        OFFSET -0.000000 0.000000 7.081605
                    }
                }
            }
        }
    }
    JOINT RightUpLeg
    {
        OFFSET -17.704014 0.000000 0.000000
        CHANNELS 3 Zrotation Xrotation Yrotation
        JOINT RightLeg
        {
            OFFSET -0.000000 -81.181816 0.000000
            CHANNELS 3 Zrotation Xrotation Yrotation
            JOINT RightFoot
            {
                OFFSET -0.000000 -62.821102 0.000000
                CHANNELS 3 Zrotation Xrotation Yrotation
                JOINT RightToeBase
                {
                    OFFSET -0.000000 -11.507608 26.556021
                    CHANNELS 3 Zrotation Xrotation Yrotation
                    End Site
                    {
                        OFFSET -0.000000 0.000000 7.081605
                    }
                }
            }
        }
    }
}
MOTION
Frames:    10
Frame Time:    0.008333
-3.323547    157.377106    -23.472862    -0.180117    -3.340492    -28.180788    5.006946    0.682666    6.281835    -2.258708    1.177324    2.129169    11.015160    -6.177721    5.613012    -4.969097    10.498665    3.342470    -0.232348    8.585236    -12.836862    -34.266987    14.977313    -45.324833    26.150087    -42.478016    -53.707260    -19.942654    -27.361713    -27.886663    -9.042662    3.401966    6.026394    39.954639    1.550874    84.517815    -6.534132    -34.531532    72.351776    21.719500    -24.683079    33.224026    13.572790    -15.511275    1.406591    -10.741298    15.457100    -1.439128    -5.457510    1.821709    33.293621    0.000000    0.000000    0.000000    -10.461509    4.113751    -8.501135    5.339855    26.749023    -2.547705    4.084822    -22.910006    -17.354099    0.000000    0.000000    0.000000    
-3.300248    157.366440    -23.488043    -0.160034    -3.344924    -28.279852    4.992680    0.676702    6.265162    -2.226058    1.170934    2.122992    11.009459    -6.111026    5.700915    -4.998361    10.473768    3.439089    -0.289756    8.610303    -12.853351    -34.263702    14.922761    -45.264664    26.280954    -42.536674    -53.562229    -19.952543    -27.401237    -27.912270    -9.050246    3.525589    6.013423    39.991940    1.748918    84.517441    -6.295498    -34.314098    72.528084    21.675999    -24.625193    33.100227    13.576612    -15.502436    1.452191    -10.762525    15.472054    -1.410589    -5.427994    1.811898    33.325195    0.000000    0.000000    0.000000    -10.511621    4.037601    -8.441026    5.350986    26.832230    -2.518377    4.093582    -22.944042    -17.336870    0.000000    0.000000    0.000000    
-3.276713    157.356705    -23.499893    -0.141385    -3.355399    -28.382624    4.984787    0.679677    6.249481    -2.227073    1.186320    2.118075    11.058773    -6.074161    5.795853    -5.067526    10.445476    3.526687    -0.307048    8.607720    -12.832916    -34.292908    14.875240    -45.235401    26.416798    -42.553833    -53.422485    -20.002647    -27.367008    -28.004509    -9.017261    3.629700    5.952859    40.035568    1.937776    84.527611    -6.018217    -34.036930    72.735138    21.581680    -24.531380    33.027409    13.577323    -15.480961    1.500596    -10.777384    15.479628    -1.375858    -5.432784    1.783152    33.341393    0.000000    0.000000    0.000000    -10.564659    3.970651    -8.381057    5.359246    27.019281    -2.482920    4.142204    -23.101482    -17.326649    0.000000    0.000000    0.000000    
-3.252656    157.345886    -23.512060    -0.121498    -3.364448    -28.485779    4.980261    0.678999    6.233158    -2.229633    1.204314    2.112975    11.107497    -6.067725    5.901395    -5.133033    10.468902    3.625020    -0.328372    8.604623    -12.808015    -34.306503    14.848155    -45.210987    26.575483    -42.599377    -53.261116    -20.023014    -27.371016    -28.084476    -8.988220    3.697332    5.911552    39.970997    2.165889    84.497200    -5.834262    -33.870491    72.917747    21.533417    -24.495134    32.910507    13.573421    -15.463981    1.563928    -10.778717    15.493426    -1.352079    -5.422916    1.767141    33.352852    0.000000    0.000000    0.000000    -10.623513    3.897329    -8.333095    5.373765    27.110771    -2.428213    4.085699    -23.106943    -17.277281    0.000000    0.000000    0.000000    
-3.231098    157.334946    -23.523584    -0.102556    -3.378821    -28.595015    4.978263    0.681702    6.215254    -2.241199    1.226137    2.107582    11.142259    -6.042806    6.000737    -5.168812    10.459299    3.721574    -0.344741    8.607789    -12.782048    -34.354523    14.766956    -45.169144    26.651955    -42.602493    -53.178452    -20.000242    -27.355091    -28.147745    -8.960789    3.773468    5.881810    40.002781    2.366315    84.472099    -5.578499    -33.621914    73.134544    21.422840    -24.435890    32.781471    13.572416    -15.437847    1.612784    -10.791326    15.501863    -1.308854    -5.418314    1.742711    33.370850    0.000000    0.000000    0.000000    -10.680379    3.830430    -8.282674    5.381881    27.188242    -2.421051    4.075389    -23.131815    -17.226572    0.000000    0.000000    0.000000    
-3.210001    157.326202    -23.534594    -0.082601    -3.386273    -28.701023    4.989077    0.668108    6.195556    -2.276134    1.261673    2.101857    11.210888    -6.003576    6.104631    -5.240827    10.429702    3.814607    -0.347876    8.602304    -12.753918    -34.410233    14.674571    -45.128971    26.711374    -42.599583    -53.106243    -19.988457    -27.338991    -28.185612    -8.914287    3.838406    5.861975    40.001007    2.565120    84.438934    -5.417951    -33.383831    73.278648    21.355505    -24.315697    32.664803    13.570380    -15.419044    1.664753    -10.795112    15.513455    -1.266411    -5.418945    1.716508    33.375084    0.000000    0.000000    0.000000    -10.727776    3.756757    -8.261576    5.363291    27.269741    -2.383755    4.132187    -23.184336    -17.204874    0.000000    0.000000    0.000000    
-3.187920    157.315598    -23.547895    -0.062018    -3.394064    -28.812405    4.992222    0.661603    6.180267    -2.300588    1.283876    2.097344    11.258613    -5.962495    6.199820    -5.277800    10.408339    3.905244    -0.359294    8.604907    -12.733071    -34.452454    14.604226    -45.088337    26.800262    -42.639923    -53.014103    -19.998104    -27.363834    -28.209906    -8.872679    3.880913    5.858275    40.071217    2.731389    84.347458    -5.141894    -33.045273    73.501976    21.244667    -24.163645    32.597347    13.571123    -15.397630    1.717936    -10.805930    15.516436    -1.227907    -5.395232    1.710598    33.387196    0.000000    0.000000    0.000000    -10.783765    3.675532    -8.216592    5.368369    27.364958    -2.335516    4.070955    -23.179916    -17.143988    0.000000    0.000000    0.000000    
-3.165998    157.305969    -23.562862    -0.038584    -3.398062    -28.928268    4.994021    0.642494    6.170071    -2.318588    1.313468    2.094433    11.292803    -5.908722    6.290036    -5.306752    10.367869    3.994266    -0.379629    8.617294    -12.714114    -34.465858    14.556980    -45.060001    26.946939    -42.700066    -52.872513    -19.990189    -27.406300    -28.212311    -8.821322    3.913639    5.862871    40.116531    2.893307    84.233795    -4.893982    -32.716671    73.721504    21.114819    -24.038752    32.380272    13.575147    -15.382316    1.770393    -10.821232    15.522598    -1.190622    -5.381843    1.696333    33.406998    0.000000    0.000000    0.000000    -10.836939    3.591666    -8.162570    5.370359    27.447309    -2.302748    4.121983    -23.241768    -17.146133    0.000000    0.000000    0.000000    
-3.144232    157.297104    -23.575676    -0.014397    -3.407690    -29.038813    4.990102    0.625843    6.151314    -2.335021    1.356204    2.088961    11.367053    -5.864587    6.396145    -5.392855    10.327021    4.087723    -0.388083    8.617230    -12.673036    -34.500229    14.505627    -45.044853    27.089214    -42.745304    -52.737423    -20.028765    -27.418072    -28.231323    -8.792534    3.993465    5.831829    40.167755    3.020777    84.193199    -4.630418    -32.381702    73.927055    20.964117    -23.910675    32.247143    13.569043    -15.361217    1.812557    -10.829767    15.524266    -1.150830    -5.385675    1.678914    33.439327    0.000000    0.000000    0.000000    -10.893824    3.510550    -8.120484    5.368752    27.538233    -2.270087    4.080637    -23.239611    -17.076750    0.000000    0.000000    0.000000    
-3.121603    157.286789    -23.585091    0.004124    -3.418671    -29.155066    4.990138    0.619271    6.144407    -2.342411    1.376946    2.087048    11.397278    -5.809537    6.482738    -5.431202    10.295877    4.173854    -0.406966    8.629886    -12.658317    -34.547859    14.422632    -45.002571    27.177225    -42.771221    -52.647648    -20.037144    -27.427376    -28.248192    -8.770333    4.087714    5.774805    40.210491    3.170501    84.160843    -4.370947    -32.065968    74.130249    20.869217    -23.790222    32.099842    13.570683    -15.334471    1.850037    -10.844615    15.529560    -1.104297    -5.379456    1.645972    33.460941    0.000000    0.000000    0.000000    -10.948207    3.432394    -8.047934    5.378046    27.629103    -2.226169    4.060598    -23.258947    -17.071148    0.000000    0.000000    0.000000    
